<?xml version="1.0" standalone="no"?>
<!DOCTYPE svg PUBLIC "-//W3C//DTD SVG 20010904//EN"
 "http://www.w3.org/TR/2001/REC-SVG-20010904/DTD/svg10.dtd">
<svg version="1.0" xmlns="http://www.w3.org/2000/svg"
 width="200.000000pt" height="127.000000pt" viewBox="0 0 200.000000 127.000000"
 preserveAspectRatio="xMidYMid meet">
<metadata>
Created by potrace 1.13, written by Peter Selinger 2001-2015
</metadata>
<g transform="translate(0.000000,127.000000) scale(0.100000,-0.100000)"
fill="#000000" stroke="none">
<path d="M590 1253 c-64 -23 -142 -105 -165 -172 -61 -184 72 -370 265 -371
150 0 266 107 278 256 7 89 -18 155 -82 219 -80 81 -189 105 -296 68z m179
-92 c109 -56 143 -181 78 -281 -77 -115 -266 -102 -326 22 -78 161 92 338 248
259z"/>
<path d="M1210 1253 c-64 -23 -142 -105 -165 -172 -47 -141 17 -287 154 -349
45 -21 64 -24 125 -20 83 6 134 29 187 85 51 53 71 97 77 169 7 89 -18 155
-82 219 -80 81 -189 105 -296 68z m173 -89 c181 -92 141 -345 -58 -362 -130
-11 -226 100 -201 233 8 42 67 112 111 131 41 18 110 17 148 -2z"/>
<path d="M114 1081 c-80 -37 -129 -141 -104 -224 29 -101 108 -153 214 -144
34 2 73 10 89 17 26 13 27 15 27 97 l0 83 -65 0 -65 0 0 -35 c0 -28 4 -35 20
-35 13 0 20 -7 20 -20 0 -17 -7 -20 -42 -20 -87 1 -133 82 -93 160 8 16 24 34
34 40 26 14 84 13 116 -2 23 -10 29 -9 52 14 31 31 25 44 -31 69 -52 24 -120
24 -172 0z"/>
<path d="M1660 905 l0 -195 88 0 c75 0 96 4 140 26 142 71 144 265 3 337 -47
23 -66 27 -143 27 l-88 0 0 -195z m213 75 c21 -24 27 -40 27 -75 0 -63 -31
-96 -98 -105 l-52 -6 0 114 0 115 48 -7 c35 -4 54 -14 75 -36z"/>
<path d="M376 652 c-7 -12 95 -375 108 -384 15 -10 18 -6 72 116 l48 109 26
-55 c14 -30 38 -83 53 -118 24 -54 30 -61 41 -49 19 20 118 371 107 382 -5 5
-24 7 -42 5 -34 -3 -34 -3 -58 -96 -13 -51 -27 -89 -31 -85 -4 4 -24 47 -45
96 -21 48 -44 87 -50 87 -7 0 -30 -39 -51 -87 -21 -49 -41 -92 -44 -96 -4 -4
-18 34 -32 85 l-25 93 -35 3 c-20 2 -39 -1 -42 -6z"/>
<path d="M955 648 c-3 -8 -4 -95 -3 -193 l3 -180 45 0 45 0 0 190 0 190 -43 3
c-28 2 -44 -1 -47 -10z"/>
<path d="M1192 468 l3 -193 42 -3 42 -3 3 106 3 106 130 -110 c71 -61 133
-107 138 -102 4 4 6 93 5 197 l-3 189 -37 3 -38 3 0 -100 c0 -56 -4 -101 -8
-101 -4 0 -63 45 -130 100 -67 55 -129 100 -137 100 -13 0 -15 -25 -13 -192z"/>
<path d="M582 217 c-12 -13 -22 -29 -22 -35 0 -18 76 -70 165 -113 187 -91
382 -91 570 0 84 41 165 95 165 111 0 5 -11 21 -24 37 l-24 28 -44 -31 c-227
-163 -480 -164 -715 -3 -23 16 -43 29 -46 29 -2 0 -13 -10 -25 -23z"/>
</g>
</svg>
